M48
METRIC,LZ,000.000
;FILE_FORMAT=3:3
;TYPE=PLATED
;Layer: PTH_Through
;EasyEDA v6.5.57, 2026-08-17 01:52:54
;a0551f9e728e45ec95aa13fd1b47a9bc,f0ab5419fc6448858195c4a45cc6a03d,10
;Gerber Generator version 0.2
;Holesize 1 = 0.301 mm
T01C0.301
;Holesize 2 = 0.701 mm
T02C0.701
;Holesize 3 = 1.101 mm
T03C1.101
%
G05
G90
T01
X021875Y117410
X025429Y114453
X023533Y124289
X057057Y126353
X061593Y116080
X061593Y113938
X061113Y120148
X041380Y119581
X039445Y119117
X039576Y118449
X039306Y117677
X039483Y117122
X041382Y117733
X041639Y116578
X040769Y107147
X039371Y116187
X030908Y115769
X036341Y115066
X043531Y127488
X031468Y115953
X032968Y115991
X040565Y128048
X033026Y119879
X033026Y118048
X034543Y118541
X033043Y118866
X035074Y119546
X046761Y123577
X037941Y113182
X039715Y115160
X022610Y119781
X021361Y115765
X051869Y107406
X034778Y109843
X040961Y113873
X047037Y113783
X041896Y114805
X041506Y115354
X038741Y119898
X041644Y120664
X045339Y123063
X044196Y122555
X039370Y122047
X034671Y117729
X027940Y127127
X030099Y115697
X033655Y112649
X035687Y114681
X026543Y127508
X027305Y113538
X031369Y110236
X033401Y112141
X035814Y119507
X042799Y126619
X030353Y118999
X033020Y127127
X039624Y127127
X039624Y128016
X038100Y120015
X042545Y121412
X043441Y119570
T02
X072320Y120027
X072320Y115177
X075200Y113977G85X074800Y113977
X075200Y121227G85X074800Y121227
T03
X059309Y129794
X056769Y129794
X054229Y129794
X051689Y129794
X049149Y129794
X046609Y129794
X044069Y129794
X041529Y129794
X038989Y129794
X036449Y129794
X033909Y129794
X031369Y129794
X028829Y129794
X026289Y129794
X023749Y129794
X021209Y129794
X059309Y106045
X056769Y106045
X054229Y106045
X051689Y106045
X049149Y106045
X046609Y106045
X044069Y106045
X041529Y106045
X038989Y106045
X036449Y106045
X033909Y106045
X031369Y106045
X028829Y106045
X026289Y106045
X023749Y106045
X021209Y106045
M30
