G04 Layer: InnerLayer2*
G04 EasyEDA v6.5.57, 2026-08-17 01:52:54*
G04 a0551f9e728e45ec95aa13fd1b47a9bc,f0ab5419fc6448858195c4a45cc6a03d,10*
G04 Gerber Generator version 0.2*
G04 Scale: 100 percent, Rotated: No, Reflected: No *
G04 Dimensions in millimeters *
G04 leading zeros omitted , absolute positions ,4 integer and 5 decimal *
%FSLAX45Y45*%
%MOMM*%

%AMMACRO1*21,1,$1,$2,0,0,$3*%
%ADD10C,0.1000*%
%ADD11C,1.3000*%
%ADD12O,1.799996X1.299997*%
%ADD13MACRO1,1.8X1.8X0.0000*%
%ADD14C,1.8000*%
%ADD15C,0.4500*%
%ADD16C,0.0114*%

%LPD*%
D10*
G75*
G01
X6957421Y10970496D02*
G03X6957421Y10970496I-5004J0D01*
D11*
G01*
X7231994Y12002701D03*
G01*
X7231994Y11517713D03*
D12*
G01*
X7500015Y11397724D03*
G01*
X7500015Y12122691D03*
D13*
G01*
X5930900Y12979400D03*
D14*
G01*
X5676900Y12979400D03*
G01*
X5422900Y12979400D03*
G01*
X5168900Y12979400D03*
G01*
X4914900Y12979400D03*
G01*
X4660900Y12979400D03*
G01*
X4406900Y12979400D03*
G01*
X4152900Y12979400D03*
G01*
X3898900Y12979400D03*
G01*
X3644900Y12979400D03*
G01*
X3390900Y12979400D03*
G01*
X3136900Y12979400D03*
G01*
X2882900Y12979400D03*
G01*
X2628900Y12979400D03*
G01*
X2374900Y12979400D03*
G01*
X2120900Y12979400D03*
D13*
G01*
X5930900Y10604500D03*
D14*
G01*
X5676900Y10604500D03*
G01*
X5422900Y10604500D03*
G01*
X5168900Y10604500D03*
G01*
X4914900Y10604500D03*
G01*
X4660900Y10604500D03*
G01*
X4406900Y10604500D03*
G01*
X4152900Y10604500D03*
G01*
X3898900Y10604500D03*
G01*
X3644900Y10604500D03*
G01*
X3390900Y10604500D03*
G01*
X3136900Y10604500D03*
G01*
X2882900Y10604500D03*
G01*
X2628900Y10604500D03*
G01*
X2374900Y10604500D03*
G01*
X2120900Y10604500D03*
D15*
G01*
X2187501Y11741000D03*
G01*
X2542948Y11445293D03*
G01*
X2353312Y12428857D03*
G01*
X5705680Y12635334D03*
G01*
X6159324Y11607980D03*
G01*
X6159324Y11393782D03*
G01*
X6111267Y12014812D03*
G01*
X4138018Y11958144D03*
G01*
X3944546Y11911738D03*
G01*
X3957627Y11844911D03*
G01*
X3930576Y11767670D03*
G01*
X3948305Y11712247D03*
G01*
X4138170Y11773334D03*
G01*
X4163926Y11657840D03*
G01*
X4076854Y10714687D03*
G01*
X3937129Y11618673D03*
G01*
X3090826Y11576890D03*
G01*
X3634132Y11506558D03*
G01*
X4353130Y12748846D03*
G01*
X3146808Y11595305D03*
G01*
X3296795Y11599115D03*
G01*
X4056484Y12804802D03*
G01*
X3302612Y11987938D03*
G01*
X3302612Y11804804D03*
G01*
X3454300Y11854131D03*
G01*
X3304313Y11886567D03*
G01*
X3507437Y11954563D03*
G01*
X4676066Y12357661D03*
G01*
X3794102Y11318217D03*
G01*
X3971521Y11515981D03*
G01*
X2260983Y11978134D03*
G01*
X2136142Y11576484D03*
G01*
X5186936Y10740570D03*
G01*
X3477795Y10984334D03*
G01*
X4096133Y11387279D03*
G01*
X4703726Y11378262D03*
G01*
X4189554Y11480497D03*
G01*
X4150616Y11535437D03*
G01*
X3874061Y11989793D03*
G01*
X4164383Y12066374D03*
G01*
X4533900Y12306300D03*
G01*
X4419600Y12255500D03*
G01*
X3937000Y12204700D03*
G01*
X3467100Y11772900D03*
G01*
X2794000Y12712700D03*
G01*
X3009900Y11569700D03*
G01*
X3365500Y11264900D03*
G01*
X3568700Y11468100D03*
G01*
X2654300Y12750800D03*
G01*
X2730500Y11353800D03*
G01*
X3136900Y11023600D03*
G01*
X3340100Y11214100D03*
G01*
X3581400Y11950700D03*
G01*
X4279900Y12661900D03*
G01*
X3035300Y11899900D03*
G01*
X3302000Y12712700D03*
G01*
X3962400Y12712700D03*
G01*
X3962400Y12801600D03*
G01*
X3810000Y12001500D03*
G01*
X4254500Y12141200D03*
G01*
X4344139Y11956958D03*
M02*
