G04 Layer: BottomLayer*
G04 EasyEDA v6.5.57, 2026-08-17 01:52:54*
G04 a0551f9e728e45ec95aa13fd1b47a9bc,f0ab5419fc6448858195c4a45cc6a03d,10*
G04 Gerber Generator version 0.2*
G04 Scale: 100 percent, Rotated: No, Reflected: No *
G04 Dimensions in millimeters *
G04 leading zeros omitted , absolute positions ,4 integer and 5 decimal *
%FSLAX45Y45*%
%MOMM*%

%AMMACRO1*21,1,$1,$2,0,0,$3*%
%ADD10C,0.0900*%
%ADD11C,1.3000*%
%ADD12O,1.799996X1.299997*%
%ADD13MACRO1,1.8X1.8X0.0000*%
%ADD14C,1.8000*%
%ADD15C,0.4500*%
%ADD16C,0.0158*%

%LPD*%
D10*
X4344139Y12025734D02*
G01*
X4344139Y11956958D01*
X4344139Y11956958D02*
G01*
X4344139Y11909732D01*
X3986557Y11552151D01*
X3956560Y11552151D01*
X3794102Y11389692D01*
X3794102Y11318217D01*
X3810000Y12001500D02*
G01*
X3949700Y12141200D01*
X4254500Y12141200D01*
X3962400Y12712700D02*
G01*
X3962400Y12801600D01*
X3035300Y11899900D02*
G01*
X3035300Y12522200D01*
X3302000Y12712700D01*
X3937000Y12306300D02*
G01*
X4241800Y12306300D01*
X4254500Y12319000D01*
X4254500Y12636500D01*
X4279900Y12661900D01*
X3581400Y11950700D02*
G01*
X3937000Y12306300D01*
X3454300Y11854131D02*
G01*
X3454300Y11972800D01*
X4305200Y12823700D01*
X5013200Y12823700D01*
X5168902Y12979402D01*
X3136900Y11023600D02*
G01*
X3149600Y11023600D01*
X3340100Y11214100D01*
X2654300Y12750800D02*
G01*
X2654300Y11430000D01*
X2730500Y11353800D01*
X3365500Y11264900D02*
G01*
X3568700Y11468100D01*
X2794000Y12712700D02*
G01*
X2794000Y11785600D01*
X3009900Y11569700D01*
X3937000Y12204700D02*
G01*
X3898900Y12204700D01*
X3467100Y11772900D01*
X4533900Y12306300D02*
G01*
X4419600Y12306300D01*
X4419600Y12255500D01*
X3874061Y11989793D02*
G01*
X4087802Y11989793D01*
X4164383Y12066374D01*
X4406902Y10604502D02*
G01*
X4150616Y10860788D01*
X4150616Y11535437D01*
X4660902Y10604502D02*
G01*
X4660902Y11009149D01*
X4189554Y11480497D01*
X4914902Y10604502D02*
G01*
X4914902Y11167087D01*
X4703726Y11378262D01*
X4096133Y11387279D02*
G01*
X4096133Y11537444D01*
X4134030Y11575341D01*
X4567227Y11575341D01*
X5150766Y10991801D01*
X5150766Y10622638D01*
X5168902Y10604502D01*
X5930902Y10604502D02*
G01*
X5827397Y10604502D01*
X5827397Y10604502D02*
G01*
X5722444Y10499549D01*
X3598471Y10499549D01*
X3517927Y10580093D01*
X3517927Y10944202D01*
X3477795Y10984334D01*
X5676902Y10604502D02*
G01*
X5540834Y10740570D01*
X5186936Y10740570D01*
X2260983Y11978134D02*
G01*
X2136142Y11853293D01*
X2136142Y11576484D01*
X3971521Y11515981D02*
G01*
X3971521Y10768891D01*
X4135909Y10604502D01*
X4152902Y10604502D01*
X4344139Y12025734D02*
G01*
X4676066Y12357661D01*
X5827397Y12979402D02*
G01*
X5646422Y12798427D01*
X4351301Y12798427D01*
X3507437Y11954563D01*
X5930902Y12979402D02*
G01*
X5827397Y12979402D01*
X5422902Y12979402D02*
G01*
X5310634Y13091670D01*
X4357499Y13091670D01*
X4279927Y13014098D01*
X4279927Y12862181D01*
X3304313Y11886567D01*
X3302612Y11804804D02*
G01*
X3391131Y11893323D01*
X3391131Y11943946D01*
X4292754Y12845569D01*
X4781069Y12845569D01*
X4914902Y12979402D01*
X3302612Y11987938D02*
G01*
X4056484Y12741810D01*
X4056484Y12804802D01*
X3898902Y12979402D02*
G01*
X3264588Y12345088D01*
X3264588Y11631322D01*
X3296795Y11599115D01*
X3644902Y12979402D02*
G01*
X3146808Y12481308D01*
X3146808Y11595305D01*
X3634132Y11506558D02*
G01*
X3634132Y11530637D01*
X3907360Y11803865D01*
X4044444Y11803865D01*
X4353130Y12112551D01*
X4353130Y12748846D01*
X2882902Y12979402D02*
G01*
X2882902Y11784815D01*
X3090826Y11576890D01*
X3898902Y10604502D02*
G01*
X3741498Y10761906D01*
X3741498Y11423042D01*
X3937129Y11618673D01*
X4076854Y10714687D02*
G01*
X4059938Y10731604D01*
X4059938Y11553852D01*
X4163926Y11657840D01*
X3390902Y10604502D02*
G01*
X3390902Y11123576D01*
X3922168Y11654843D01*
X4019679Y11654843D01*
X4138170Y11773334D01*
X3136902Y10604502D02*
G01*
X3136902Y10900844D01*
X3948305Y11712247D01*
X2882902Y10604502D02*
G01*
X2882902Y10704172D01*
X3930576Y11751845D01*
X3930576Y11767670D01*
X2628902Y10604502D02*
G01*
X3869311Y11844911D01*
X3957627Y11844911D01*
X2374902Y10604502D02*
G01*
X2392352Y10604502D01*
X3699588Y11911738D01*
X3944546Y11911738D01*
X2120902Y10604502D02*
G01*
X3055495Y11539095D01*
X3301265Y11539095D01*
X3715793Y11953623D01*
X4133496Y11953623D01*
X4138018Y11958144D01*
X6159324Y11607980D02*
G01*
X6159324Y11393782D01*
X6159324Y11607980D02*
G01*
X6159324Y11966755D01*
X6111267Y12014812D01*
X6111267Y12014812D02*
G01*
X5705680Y12420399D01*
X5705680Y12635334D01*
X7500012Y12122685D02*
G01*
X7351981Y12122685D01*
X7231992Y12002696D01*
X7500012Y11397719D02*
G01*
X7351981Y11397719D01*
X7231992Y11517708D01*
X7231992Y11517708D02*
G01*
X7231992Y12002696D01*
X2120902Y12979402D02*
G01*
X2353312Y12746992D01*
X2353312Y12428857D01*
X2353312Y11741000D02*
G01*
X2353312Y12428857D01*
X2353312Y11741000D02*
G01*
X2187501Y11741000D01*
X2542948Y11445293D02*
G01*
X2542948Y11551363D01*
X2353312Y11741000D01*
D11*
G01*
X7231994Y12002701D03*
G01*
X7231994Y11517713D03*
D12*
G01*
X7500015Y11397724D03*
G01*
X7500015Y12122691D03*
D13*
G01*
X5930900Y12979400D03*
D14*
G01*
X5676900Y12979400D03*
G01*
X5422900Y12979400D03*
G01*
X5168900Y12979400D03*
G01*
X4914900Y12979400D03*
G01*
X4660900Y12979400D03*
G01*
X4406900Y12979400D03*
G01*
X4152900Y12979400D03*
G01*
X3898900Y12979400D03*
G01*
X3644900Y12979400D03*
G01*
X3390900Y12979400D03*
G01*
X3136900Y12979400D03*
G01*
X2882900Y12979400D03*
G01*
X2628900Y12979400D03*
G01*
X2374900Y12979400D03*
G01*
X2120900Y12979400D03*
D13*
G01*
X5930900Y10604500D03*
D14*
G01*
X5676900Y10604500D03*
G01*
X5422900Y10604500D03*
G01*
X5168900Y10604500D03*
G01*
X4914900Y10604500D03*
G01*
X4660900Y10604500D03*
G01*
X4406900Y10604500D03*
G01*
X4152900Y10604500D03*
G01*
X3898900Y10604500D03*
G01*
X3644900Y10604500D03*
G01*
X3390900Y10604500D03*
G01*
X3136900Y10604500D03*
G01*
X2882900Y10604500D03*
G01*
X2628900Y10604500D03*
G01*
X2374900Y10604500D03*
G01*
X2120900Y10604500D03*
D15*
G01*
X2187501Y11741000D03*
G01*
X2542948Y11445293D03*
G01*
X2353312Y12428857D03*
G01*
X5705680Y12635334D03*
G01*
X6159324Y11607980D03*
G01*
X6159324Y11393782D03*
G01*
X6111267Y12014812D03*
G01*
X4138018Y11958144D03*
G01*
X3944546Y11911738D03*
G01*
X3957627Y11844911D03*
G01*
X3930576Y11767670D03*
G01*
X3948305Y11712247D03*
G01*
X4138170Y11773334D03*
G01*
X4163926Y11657840D03*
G01*
X4076854Y10714687D03*
G01*
X3937129Y11618673D03*
G01*
X3090826Y11576890D03*
G01*
X3634132Y11506558D03*
G01*
X4353130Y12748846D03*
G01*
X3146808Y11595305D03*
G01*
X3296795Y11599115D03*
G01*
X4056484Y12804802D03*
G01*
X3302612Y11987938D03*
G01*
X3302612Y11804804D03*
G01*
X3454300Y11854131D03*
G01*
X3304313Y11886567D03*
G01*
X3507437Y11954563D03*
G01*
X4676066Y12357661D03*
G01*
X3794102Y11318217D03*
G01*
X3971521Y11515981D03*
G01*
X2260983Y11978134D03*
G01*
X2136142Y11576484D03*
G01*
X5186936Y10740570D03*
G01*
X3477795Y10984334D03*
G01*
X4096133Y11387279D03*
G01*
X4703726Y11378262D03*
G01*
X4189554Y11480497D03*
G01*
X4150616Y11535437D03*
G01*
X3874061Y11989793D03*
G01*
X4164383Y12066374D03*
G01*
X4533900Y12306300D03*
G01*
X4419600Y12255500D03*
G01*
X3937000Y12204700D03*
G01*
X3467100Y11772900D03*
G01*
X2794000Y12712700D03*
G01*
X3009900Y11569700D03*
G01*
X3365500Y11264900D03*
G01*
X3568700Y11468100D03*
G01*
X2654300Y12750800D03*
G01*
X2730500Y11353800D03*
G01*
X3136900Y11023600D03*
G01*
X3340100Y11214100D03*
G01*
X3581400Y11950700D03*
G01*
X4279900Y12661900D03*
G01*
X3035300Y11899900D03*
G01*
X3302000Y12712700D03*
G01*
X3962400Y12712700D03*
G01*
X3962400Y12801600D03*
G01*
X3810000Y12001500D03*
G01*
X4254500Y12141200D03*
G01*
X4344139Y11956958D03*
M02*
