G04 Layer: TopSilkscreenLayer*
G04 EasyEDA v6.5.57, 2026-08-17 01:52:54*
G04 a0551f9e728e45ec95aa13fd1b47a9bc,f0ab5419fc6448858195c4a45cc6a03d,10*
G04 Gerber Generator version 0.2*
G04 Scale: 100 percent, Rotated: No, Reflected: No *
G04 Dimensions in millimeters *
G04 leading zeros omitted , absolute positions ,4 integer and 5 decimal *
%FSLAX45Y45*%
%MOMM*%

%ADD10C,0.1524*%
%ADD11C,0.2540*%
%ADD12C,0.2000*%
%ADD13C,0.3000*%
%ADD14C,0.0103*%

%LPD*%
D10*
X5981954Y12250674D02*
G01*
X5978652Y12257531D01*
X5971793Y12264389D01*
X5964936Y12267692D01*
X5951474Y12267692D01*
X5944615Y12264389D01*
X5937758Y12257531D01*
X5934202Y12250674D01*
X5930900Y12240513D01*
X5930900Y12223242D01*
X5934202Y12213081D01*
X5937758Y12206224D01*
X5944615Y12199620D01*
X5951474Y12196063D01*
X5964936Y12196063D01*
X5971793Y12199620D01*
X5978652Y12206224D01*
X5981954Y12213081D01*
X6004559Y12253976D02*
G01*
X6011418Y12257531D01*
X6021577Y12267692D01*
X6021577Y12196063D01*
X6159754Y12250674D02*
G01*
X6156452Y12257531D01*
X6149593Y12264389D01*
X6142736Y12267692D01*
X6129274Y12267692D01*
X6122415Y12264389D01*
X6115558Y12257531D01*
X6112002Y12250674D01*
X6108700Y12240513D01*
X6108700Y12223242D01*
X6112002Y12213081D01*
X6115558Y12206224D01*
X6122415Y12199620D01*
X6129274Y12196063D01*
X6142736Y12196063D01*
X6149593Y12199620D01*
X6156452Y12206224D01*
X6159754Y12213081D01*
X6185661Y12250674D02*
G01*
X6185661Y12253976D01*
X6189218Y12260834D01*
X6192520Y12264389D01*
X6199377Y12267692D01*
X6213093Y12267692D01*
X6219952Y12264389D01*
X6223254Y12260834D01*
X6226556Y12253976D01*
X6226556Y12247118D01*
X6223254Y12240513D01*
X6216395Y12230100D01*
X6182359Y12196063D01*
X6230111Y12196063D01*
X3543554Y11247374D02*
G01*
X3540252Y11254231D01*
X3533393Y11261089D01*
X3526536Y11264392D01*
X3513074Y11264392D01*
X3506215Y11261089D01*
X3499358Y11254231D01*
X3495802Y11247374D01*
X3492500Y11237213D01*
X3492500Y11219942D01*
X3495802Y11209781D01*
X3499358Y11202924D01*
X3506215Y11196320D01*
X3513074Y11192763D01*
X3526536Y11192763D01*
X3533393Y11196320D01*
X3540252Y11202924D01*
X3543554Y11209781D01*
X3573018Y11264392D02*
G01*
X3610356Y11264392D01*
X3590036Y11237213D01*
X3600195Y11237213D01*
X3607054Y11233658D01*
X3610356Y11230355D01*
X3613911Y11219942D01*
X3613911Y11213337D01*
X3610356Y11202924D01*
X3603752Y11196320D01*
X3593338Y11192763D01*
X3583177Y11192763D01*
X3573018Y11196320D01*
X3569461Y11199621D01*
X3566159Y11206479D01*
X4762754Y11514074D02*
G01*
X4759452Y11520931D01*
X4752593Y11527789D01*
X4745736Y11531092D01*
X4732274Y11531092D01*
X4725415Y11527789D01*
X4718558Y11520931D01*
X4715002Y11514074D01*
X4711700Y11503913D01*
X4711700Y11486642D01*
X4715002Y11476481D01*
X4718558Y11469624D01*
X4725415Y11463020D01*
X4732274Y11459463D01*
X4745736Y11459463D01*
X4752593Y11463020D01*
X4759452Y11469624D01*
X4762754Y11476481D01*
X4819395Y11531092D02*
G01*
X4785359Y11483339D01*
X4836413Y11483339D01*
X4819395Y11531092D02*
G01*
X4819395Y11459463D01*
X2870454Y11768074D02*
G01*
X2867152Y11774931D01*
X2860293Y11781789D01*
X2853436Y11785092D01*
X2839974Y11785092D01*
X2833115Y11781789D01*
X2826258Y11774931D01*
X2822702Y11768074D01*
X2819400Y11757913D01*
X2819400Y11740642D01*
X2822702Y11730481D01*
X2826258Y11723624D01*
X2833115Y11717020D01*
X2839974Y11713463D01*
X2853436Y11713463D01*
X2860293Y11717020D01*
X2867152Y11723624D01*
X2870454Y11730481D01*
X2933954Y11785092D02*
G01*
X2899918Y11785092D01*
X2896361Y11754358D01*
X2899918Y11757913D01*
X2910077Y11761215D01*
X2920238Y11761215D01*
X2930652Y11757913D01*
X2937256Y11751055D01*
X2940811Y11740642D01*
X2940811Y11734037D01*
X2937256Y11723624D01*
X2930652Y11717020D01*
X2920238Y11713463D01*
X2910077Y11713463D01*
X2899918Y11717020D01*
X2896361Y11720321D01*
X2893059Y11727179D01*
X3423815Y12748028D02*
G01*
X3420513Y12754886D01*
X3413655Y12761744D01*
X3406797Y12765046D01*
X3393335Y12765046D01*
X3386477Y12761744D01*
X3379619Y12754886D01*
X3376063Y12748028D01*
X3372761Y12737868D01*
X3372761Y12720596D01*
X3376063Y12710436D01*
X3379619Y12703578D01*
X3386477Y12696974D01*
X3393335Y12693418D01*
X3406797Y12693418D01*
X3413655Y12696974D01*
X3420513Y12703578D01*
X3423815Y12710436D01*
X3487315Y12754886D02*
G01*
X3484013Y12761744D01*
X3473599Y12765046D01*
X3466741Y12765046D01*
X3456581Y12761744D01*
X3449723Y12751330D01*
X3446421Y12734312D01*
X3446421Y12717294D01*
X3449723Y12703578D01*
X3456581Y12696974D01*
X3466741Y12693418D01*
X3470297Y12693418D01*
X3480457Y12696974D01*
X3487315Y12703578D01*
X3490617Y12713992D01*
X3490617Y12717294D01*
X3487315Y12727454D01*
X3480457Y12734312D01*
X3470297Y12737868D01*
X3466741Y12737868D01*
X3456581Y12734312D01*
X3449723Y12727454D01*
X3446421Y12717294D01*
X3195215Y12748028D02*
G01*
X3191913Y12754886D01*
X3185055Y12761744D01*
X3178197Y12765046D01*
X3164735Y12765046D01*
X3157877Y12761744D01*
X3151019Y12754886D01*
X3147463Y12748028D01*
X3144161Y12737868D01*
X3144161Y12720596D01*
X3147463Y12710436D01*
X3151019Y12703578D01*
X3157877Y12696974D01*
X3164735Y12693418D01*
X3178197Y12693418D01*
X3185055Y12696974D01*
X3191913Y12703578D01*
X3195215Y12710436D01*
X3265573Y12765046D02*
G01*
X3231537Y12693418D01*
X3217821Y12765046D02*
G01*
X3265573Y12765046D01*
X3652415Y12748028D02*
G01*
X3649113Y12754886D01*
X3642255Y12761744D01*
X3635397Y12765046D01*
X3621935Y12765046D01*
X3615077Y12761744D01*
X3608219Y12754886D01*
X3604663Y12748028D01*
X3601361Y12737868D01*
X3601361Y12720596D01*
X3604663Y12710436D01*
X3608219Y12703578D01*
X3615077Y12696974D01*
X3621935Y12693418D01*
X3635397Y12693418D01*
X3642255Y12696974D01*
X3649113Y12703578D01*
X3652415Y12710436D01*
X3692039Y12765046D02*
G01*
X3681879Y12761744D01*
X3678323Y12754886D01*
X3678323Y12748028D01*
X3681879Y12741170D01*
X3688737Y12737868D01*
X3702199Y12734312D01*
X3712613Y12731010D01*
X3719217Y12724152D01*
X3722773Y12717294D01*
X3722773Y12707134D01*
X3719217Y12700276D01*
X3715915Y12696974D01*
X3705755Y12693418D01*
X3692039Y12693418D01*
X3681879Y12696974D01*
X3678323Y12700276D01*
X3675021Y12707134D01*
X3675021Y12717294D01*
X3678323Y12724152D01*
X3685181Y12731010D01*
X3695341Y12734312D01*
X3709057Y12737868D01*
X3715915Y12741170D01*
X3719217Y12748028D01*
X3719217Y12754886D01*
X3715915Y12761744D01*
X3705755Y12765046D01*
X3692039Y12765046D01*
X3881015Y12748028D02*
G01*
X3877713Y12754886D01*
X3870855Y12761744D01*
X3863997Y12765046D01*
X3850535Y12765046D01*
X3843677Y12761744D01*
X3836819Y12754886D01*
X3833263Y12748028D01*
X3829961Y12737868D01*
X3829961Y12720596D01*
X3833263Y12710436D01*
X3836819Y12703578D01*
X3843677Y12696974D01*
X3850535Y12693418D01*
X3863997Y12693418D01*
X3870855Y12696974D01*
X3877713Y12703578D01*
X3881015Y12710436D01*
X3947817Y12741170D02*
G01*
X3944515Y12731010D01*
X3937657Y12724152D01*
X3927497Y12720596D01*
X3923941Y12720596D01*
X3913781Y12724152D01*
X3906923Y12731010D01*
X3903621Y12741170D01*
X3903621Y12744472D01*
X3906923Y12754886D01*
X3913781Y12761744D01*
X3923941Y12765046D01*
X3927497Y12765046D01*
X3937657Y12761744D01*
X3944515Y12754886D01*
X3947817Y12741170D01*
X3947817Y12724152D01*
X3944515Y12707134D01*
X3937657Y12696974D01*
X3927497Y12693418D01*
X3920639Y12693418D01*
X3910479Y12696974D01*
X3906923Y12703578D01*
X4096915Y12748028D02*
G01*
X4093613Y12754886D01*
X4086755Y12761744D01*
X4079897Y12765046D01*
X4066435Y12765046D01*
X4059577Y12761744D01*
X4052719Y12754886D01*
X4049163Y12748028D01*
X4045861Y12737868D01*
X4045861Y12720596D01*
X4049163Y12710436D01*
X4052719Y12703578D01*
X4059577Y12696974D01*
X4066435Y12693418D01*
X4079897Y12693418D01*
X4086755Y12696974D01*
X4093613Y12703578D01*
X4096915Y12710436D01*
X4119521Y12751330D02*
G01*
X4126379Y12754886D01*
X4136539Y12765046D01*
X4136539Y12693418D01*
X4179465Y12765046D02*
G01*
X4169305Y12761744D01*
X4162447Y12751330D01*
X4159145Y12734312D01*
X4159145Y12724152D01*
X4162447Y12707134D01*
X4169305Y12696974D01*
X4179465Y12693418D01*
X4186323Y12693418D01*
X4196483Y12696974D01*
X4203341Y12707134D01*
X4206643Y12724152D01*
X4206643Y12734312D01*
X4203341Y12751330D01*
X4196483Y12761744D01*
X4186323Y12765046D01*
X4179465Y12765046D01*
X2953915Y12748028D02*
G01*
X2950613Y12754886D01*
X2943755Y12761744D01*
X2936897Y12765046D01*
X2923435Y12765046D01*
X2916577Y12761744D01*
X2909719Y12754886D01*
X2906163Y12748028D01*
X2902861Y12737868D01*
X2902861Y12720596D01*
X2906163Y12710436D01*
X2909719Y12703578D01*
X2916577Y12696974D01*
X2923435Y12693418D01*
X2936897Y12693418D01*
X2943755Y12696974D01*
X2950613Y12703578D01*
X2953915Y12710436D01*
X2976521Y12751330D02*
G01*
X2983379Y12754886D01*
X2993539Y12765046D01*
X2993539Y12693418D01*
X3016145Y12751330D02*
G01*
X3022749Y12754886D01*
X3033163Y12765046D01*
X3033163Y12693418D01*
X4350915Y12748028D02*
G01*
X4347613Y12754886D01*
X4340755Y12761744D01*
X4333897Y12765046D01*
X4320435Y12765046D01*
X4313577Y12761744D01*
X4306719Y12754886D01*
X4303163Y12748028D01*
X4299861Y12737868D01*
X4299861Y12720596D01*
X4303163Y12710436D01*
X4306719Y12703578D01*
X4313577Y12696974D01*
X4320435Y12693418D01*
X4333897Y12693418D01*
X4340755Y12696974D01*
X4347613Y12703578D01*
X4350915Y12710436D01*
X4373521Y12751330D02*
G01*
X4380379Y12754886D01*
X4390539Y12765046D01*
X4390539Y12693418D01*
X4416447Y12748028D02*
G01*
X4416447Y12751330D01*
X4419749Y12758188D01*
X4423305Y12761744D01*
X4430163Y12765046D01*
X4443625Y12765046D01*
X4450483Y12761744D01*
X4454039Y12758188D01*
X4457341Y12751330D01*
X4457341Y12744472D01*
X4454039Y12737868D01*
X4447181Y12727454D01*
X4413145Y12693418D01*
X4460643Y12693418D01*
X4592215Y12748028D02*
G01*
X4588913Y12754886D01*
X4582055Y12761744D01*
X4575197Y12765046D01*
X4561735Y12765046D01*
X4554877Y12761744D01*
X4548019Y12754886D01*
X4544463Y12748028D01*
X4541161Y12737868D01*
X4541161Y12720596D01*
X4544463Y12710436D01*
X4548019Y12703578D01*
X4554877Y12696974D01*
X4561735Y12693418D01*
X4575197Y12693418D01*
X4582055Y12696974D01*
X4588913Y12703578D01*
X4592215Y12710436D01*
X4614821Y12751330D02*
G01*
X4621679Y12754886D01*
X4631839Y12765046D01*
X4631839Y12693418D01*
X4661049Y12765046D02*
G01*
X4698641Y12765046D01*
X4678321Y12737868D01*
X4688481Y12737868D01*
X4695339Y12734312D01*
X4698641Y12731010D01*
X4701943Y12720596D01*
X4701943Y12713992D01*
X4698641Y12703578D01*
X4691783Y12696974D01*
X4681623Y12693418D01*
X4671463Y12693418D01*
X4661049Y12696974D01*
X4657747Y12700276D01*
X4654445Y12707134D01*
X1587754Y12060174D02*
G01*
X1584452Y12067031D01*
X1577594Y12073889D01*
X1570736Y12077192D01*
X1557273Y12077192D01*
X1550415Y12073889D01*
X1543557Y12067031D01*
X1540002Y12060174D01*
X1536700Y12050013D01*
X1536700Y12032742D01*
X1540002Y12022581D01*
X1543557Y12015724D01*
X1550415Y12009120D01*
X1557273Y12005563D01*
X1570736Y12005563D01*
X1577594Y12009120D01*
X1584452Y12015724D01*
X1587754Y12022581D01*
X1610360Y12063476D02*
G01*
X1617218Y12067031D01*
X1627378Y12077192D01*
X1627378Y12005563D01*
X1684020Y12077192D02*
G01*
X1649984Y12029439D01*
X1701037Y12029439D01*
X1684020Y12077192D02*
G01*
X1684020Y12005563D01*
X6781787Y12472415D02*
G01*
X6781787Y12363450D01*
X6781787Y12363450D02*
G01*
X6844017Y12363450D01*
X6878307Y12451587D02*
G01*
X6888721Y12456921D01*
X6904469Y12472415D01*
X6904469Y12363450D01*
X6172200Y11404092D02*
G01*
X6172200Y11332463D01*
X6172200Y11404092D02*
G01*
X6202934Y11404092D01*
X6213093Y11400789D01*
X6216395Y11397234D01*
X6219952Y11390376D01*
X6219952Y11383518D01*
X6216395Y11376913D01*
X6213093Y11373358D01*
X6202934Y11370055D01*
X6172200Y11370055D01*
X6196075Y11370055D02*
G01*
X6219952Y11332463D01*
X6242304Y11390376D02*
G01*
X6249161Y11393931D01*
X6259575Y11404092D01*
X6259575Y11332463D01*
X6172200Y11531092D02*
G01*
X6172200Y11459463D01*
X6172200Y11531092D02*
G01*
X6202934Y11531092D01*
X6213093Y11527789D01*
X6216395Y11524234D01*
X6219952Y11517376D01*
X6219952Y11510518D01*
X6216395Y11503913D01*
X6213093Y11500358D01*
X6202934Y11497055D01*
X6172200Y11497055D01*
X6196075Y11497055D02*
G01*
X6219952Y11459463D01*
X6245859Y11514074D02*
G01*
X6245859Y11517376D01*
X6249161Y11524234D01*
X6252718Y11527789D01*
X6259575Y11531092D01*
X6273038Y11531092D01*
X6279895Y11527789D01*
X6283452Y11524234D01*
X6286754Y11517376D01*
X6286754Y11510518D01*
X6283452Y11503913D01*
X6276593Y11493500D01*
X6242304Y11459463D01*
X6290056Y11459463D01*
X3689299Y12281725D02*
G01*
X3689299Y12203747D01*
X3694379Y12188253D01*
X3704793Y12177839D01*
X3720541Y12172759D01*
X3730955Y12172759D01*
X3746449Y12177839D01*
X3756863Y12188253D01*
X3761943Y12203747D01*
X3761943Y12281725D01*
X3796233Y12260897D02*
G01*
X3806647Y12266231D01*
X3822395Y12281725D01*
X3822395Y12172759D01*
X6388087Y11964428D02*
G01*
X6388087Y11886450D01*
X6393167Y11870956D01*
X6403581Y11860542D01*
X6419329Y11855462D01*
X6429743Y11855462D01*
X6445237Y11860542D01*
X6455651Y11870956D01*
X6460731Y11886450D01*
X6460731Y11964428D01*
X6500355Y11938520D02*
G01*
X6500355Y11943600D01*
X6505435Y11954014D01*
X6510769Y11959348D01*
X6521183Y11964428D01*
X6541757Y11964428D01*
X6552171Y11959348D01*
X6557505Y11954014D01*
X6562585Y11943600D01*
X6562585Y11933186D01*
X6557505Y11922772D01*
X6547091Y11907278D01*
X6495021Y11855462D01*
X6567919Y11855462D01*
X2133600Y12421615D02*
G01*
X2133600Y12343637D01*
X2138679Y12328144D01*
X2149093Y12317729D01*
X2164841Y12312650D01*
X2175256Y12312650D01*
X2190750Y12317729D01*
X2201163Y12328144D01*
X2206243Y12343637D01*
X2206243Y12421615D01*
X2250947Y12421615D02*
G01*
X2308097Y12421615D01*
X2277109Y12379960D01*
X2292604Y12379960D01*
X2303018Y12374879D01*
X2308097Y12369800D01*
X2313431Y12354052D01*
X2313431Y12343637D01*
X2308097Y12328144D01*
X2297684Y12317729D01*
X2282190Y12312650D01*
X2266695Y12312650D01*
X2250947Y12317729D01*
X2245868Y12322810D01*
X2240534Y12333224D01*
X4699000Y12089892D02*
G01*
X4699000Y12038837D01*
X4702302Y12028424D01*
X4709159Y12021820D01*
X4719574Y12018263D01*
X4726177Y12018263D01*
X4736591Y12021820D01*
X4743195Y12028424D01*
X4746752Y12038837D01*
X4746752Y12089892D01*
X4803393Y12089892D02*
G01*
X4769104Y12042139D01*
X4820411Y12042139D01*
X4803393Y12089892D02*
G01*
X4803393Y12018263D01*
X4711700Y11899392D02*
G01*
X4711700Y11848337D01*
X4715002Y11837924D01*
X4721859Y11831320D01*
X4732274Y11827763D01*
X4738877Y11827763D01*
X4749291Y11831320D01*
X4755895Y11837924D01*
X4759452Y11848337D01*
X4759452Y11899392D01*
X4822952Y11899392D02*
G01*
X4788661Y11899392D01*
X4785359Y11868658D01*
X4788661Y11872213D01*
X4799075Y11875515D01*
X4809236Y11875515D01*
X4819395Y11872213D01*
X4826254Y11865355D01*
X4829556Y11854942D01*
X4829556Y11848337D01*
X4826254Y11837924D01*
X4819395Y11831320D01*
X4809236Y11827763D01*
X4799075Y11827763D01*
X4788661Y11831320D01*
X4785359Y11834621D01*
X4781804Y11841479D01*
X1079500Y10592815D02*
G01*
X1079500Y10483850D01*
X1079500Y10592815D02*
G01*
X1126236Y10592815D01*
X1141729Y10587736D01*
X1147063Y10582402D01*
X1152144Y10571987D01*
X1152144Y10561574D01*
X1147063Y10551160D01*
X1141729Y10546079D01*
X1126236Y10541000D01*
X1079500Y10541000D02*
G01*
X1126236Y10541000D01*
X1141729Y10535665D01*
X1147063Y10530586D01*
X1152144Y10520171D01*
X1152144Y10504424D01*
X1147063Y10494010D01*
X1141729Y10488929D01*
X1126236Y10483850D01*
X1079500Y10483850D01*
X1217676Y10592815D02*
G01*
X1207262Y10587736D01*
X1196847Y10577321D01*
X1191768Y10566908D01*
X1186434Y10551160D01*
X1186434Y10525252D01*
X1191768Y10509758D01*
X1196847Y10499344D01*
X1207262Y10488929D01*
X1217676Y10483850D01*
X1238504Y10483850D01*
X1248918Y10488929D01*
X1259331Y10499344D01*
X1264412Y10509758D01*
X1269745Y10525252D01*
X1269745Y10551160D01*
X1264412Y10566908D01*
X1259331Y10577321D01*
X1248918Y10587736D01*
X1238504Y10592815D01*
X1217676Y10592815D01*
X1335023Y10592815D02*
G01*
X1324610Y10587736D01*
X1314450Y10577321D01*
X1309115Y10566908D01*
X1304036Y10551160D01*
X1304036Y10525252D01*
X1309115Y10509758D01*
X1314450Y10499344D01*
X1324610Y10488929D01*
X1335023Y10483850D01*
X1355852Y10483850D01*
X1366265Y10488929D01*
X1376679Y10499344D01*
X1381760Y10509758D01*
X1387094Y10525252D01*
X1387094Y10551160D01*
X1381760Y10566908D01*
X1376679Y10577321D01*
X1366265Y10587736D01*
X1355852Y10592815D01*
X1335023Y10592815D01*
X1457705Y10592815D02*
G01*
X1457705Y10483850D01*
X1421384Y10592815D02*
G01*
X1494028Y10592815D01*
X1601215Y10577321D02*
G01*
X1590802Y10587736D01*
X1575054Y10592815D01*
X1554479Y10592815D01*
X1538731Y10587736D01*
X1528318Y10577321D01*
X1528318Y10566908D01*
X1533652Y10556494D01*
X1538731Y10551160D01*
X1549145Y10546079D01*
X1580387Y10535665D01*
X1590802Y10530586D01*
X1595881Y10525252D01*
X1601215Y10514837D01*
X1601215Y10499344D01*
X1590802Y10488929D01*
X1575054Y10483850D01*
X1554479Y10483850D01*
X1538731Y10488929D01*
X1528318Y10499344D01*
X1635505Y10592815D02*
G01*
X1635505Y10483850D01*
X1635505Y10592815D02*
G01*
X1703070Y10592815D01*
X1635505Y10541000D02*
G01*
X1676907Y10541000D01*
X1635505Y10483850D02*
G01*
X1703070Y10483850D01*
X1737360Y10592815D02*
G01*
X1737360Y10483850D01*
X1737360Y10483850D02*
G01*
X1799589Y10483850D01*
X6629476Y10504030D02*
G01*
X6629476Y10394810D01*
X6629476Y10504030D02*
G01*
X6676212Y10504030D01*
X6691706Y10498696D01*
X6697040Y10493616D01*
X6702120Y10483202D01*
X6702120Y10472788D01*
X6697040Y10462374D01*
X6691706Y10457294D01*
X6676212Y10451960D01*
X6629476Y10451960D01*
X6665798Y10451960D02*
G01*
X6702120Y10394810D01*
X6736410Y10504030D02*
G01*
X6736410Y10394810D01*
X6736410Y10504030D02*
G01*
X6803974Y10504030D01*
X6736410Y10451960D02*
G01*
X6778066Y10451960D01*
X6736410Y10394810D02*
G01*
X6803974Y10394810D01*
X6910908Y10488282D02*
G01*
X6900494Y10498696D01*
X6885000Y10504030D01*
X6864172Y10504030D01*
X6848678Y10498696D01*
X6838264Y10488282D01*
X6838264Y10477868D01*
X6843344Y10467454D01*
X6848678Y10462374D01*
X6859092Y10457294D01*
X6890334Y10446880D01*
X6900494Y10441546D01*
X6905828Y10436466D01*
X6910908Y10426052D01*
X6910908Y10410304D01*
X6900494Y10400144D01*
X6885000Y10394810D01*
X6864172Y10394810D01*
X6848678Y10400144D01*
X6838264Y10410304D01*
X6945198Y10504030D02*
G01*
X6945198Y10394810D01*
X6945198Y10504030D02*
G01*
X7012762Y10504030D01*
X6945198Y10451960D02*
G01*
X6986854Y10451960D01*
X6945198Y10394810D02*
G01*
X7012762Y10394810D01*
X7083374Y10504030D02*
G01*
X7083374Y10394810D01*
X7047052Y10504030D02*
G01*
X7119950Y10504030D01*
X7342713Y12349868D02*
G01*
X7342713Y12271890D01*
X7347793Y12256396D01*
X7358207Y12245982D01*
X7373955Y12240902D01*
X7384369Y12240902D01*
X7399863Y12245982D01*
X7410277Y12256396D01*
X7415357Y12271890D01*
X7415357Y12349868D01*
X7522545Y12334374D02*
G01*
X7512131Y12344788D01*
X7496383Y12349868D01*
X7475809Y12349868D01*
X7460061Y12344788D01*
X7449647Y12334374D01*
X7449647Y12323960D01*
X7454981Y12313546D01*
X7460061Y12308212D01*
X7470475Y12303132D01*
X7501717Y12292718D01*
X7512131Y12287638D01*
X7517211Y12282304D01*
X7522545Y12271890D01*
X7522545Y12256396D01*
X7512131Y12245982D01*
X7496383Y12240902D01*
X7475809Y12240902D01*
X7460061Y12245982D01*
X7449647Y12256396D01*
X7556835Y12349868D02*
G01*
X7556835Y12240902D01*
X7556835Y12349868D02*
G01*
X7603571Y12349868D01*
X7619065Y12344788D01*
X7624399Y12339454D01*
X7629479Y12329040D01*
X7629479Y12318626D01*
X7624399Y12308212D01*
X7619065Y12303132D01*
X7603571Y12298052D01*
X7556835Y12298052D02*
G01*
X7603571Y12298052D01*
X7619065Y12292718D01*
X7624399Y12287638D01*
X7629479Y12277224D01*
X7629479Y12261476D01*
X7624399Y12251062D01*
X7619065Y12245982D01*
X7603571Y12240902D01*
X7556835Y12240902D01*
X7663769Y12329040D02*
G01*
X7674183Y12334374D01*
X7689677Y12349868D01*
X7689677Y12240902D01*
D11*
X6052657Y11986181D02*
G01*
X6052657Y11906183D01*
X6052703Y12042226D02*
G01*
X6052703Y12122223D01*
X5910689Y11986181D02*
G01*
X5910689Y11906183D01*
X5910737Y12042226D02*
G01*
X5910737Y12122223D01*
X6021674Y11875208D02*
G01*
X5941669Y11875208D01*
X5941722Y12153201D02*
G01*
X6021725Y12153201D01*
X6243157Y11986181D02*
G01*
X6243157Y11906183D01*
X6243203Y12042226D02*
G01*
X6243203Y12122223D01*
X6101189Y11986181D02*
G01*
X6101189Y11906183D01*
X6101237Y12042226D02*
G01*
X6101237Y12122223D01*
X6212174Y11875208D02*
G01*
X6132169Y11875208D01*
X6132222Y12153201D02*
G01*
X6212225Y12153201D01*
X3626957Y10970181D02*
G01*
X3626957Y10890183D01*
X3627003Y11026226D02*
G01*
X3627003Y11106223D01*
X3484989Y10970181D02*
G01*
X3484989Y10890183D01*
X3485037Y11026226D02*
G01*
X3485037Y11106223D01*
X3595974Y10859208D02*
G01*
X3515969Y10859208D01*
X3516022Y11137201D02*
G01*
X3596025Y11137201D01*
X4480481Y11422542D02*
G01*
X4400483Y11422542D01*
X4536526Y11422496D02*
G01*
X4616523Y11422496D01*
X4480481Y11564510D02*
G01*
X4400483Y11564510D01*
X4536526Y11564462D02*
G01*
X4616523Y11564462D01*
X4369508Y11453525D02*
G01*
X4369508Y11533530D01*
X4647501Y11533477D02*
G01*
X4647501Y11453474D01*
X2953857Y11490881D02*
G01*
X2953857Y11410883D01*
X2953903Y11546926D02*
G01*
X2953903Y11626923D01*
X2811889Y11490881D02*
G01*
X2811889Y11410883D01*
X2811937Y11546926D02*
G01*
X2811937Y11626923D01*
X2922874Y11379908D02*
G01*
X2842869Y11379908D01*
X2842922Y11657901D02*
G01*
X2922925Y11657901D01*
X3507219Y12470836D02*
G01*
X3507219Y12390838D01*
X3507265Y12526881D02*
G01*
X3507265Y12606878D01*
X3365251Y12470836D02*
G01*
X3365251Y12390838D01*
X3365299Y12526881D02*
G01*
X3365299Y12606878D01*
X3476236Y12359863D02*
G01*
X3396231Y12359863D01*
X3396284Y12637856D02*
G01*
X3476287Y12637856D01*
X3278619Y12470836D02*
G01*
X3278619Y12390838D01*
X3278665Y12526881D02*
G01*
X3278665Y12606878D01*
X3136651Y12470836D02*
G01*
X3136651Y12390838D01*
X3136699Y12526881D02*
G01*
X3136699Y12606878D01*
X3247636Y12359863D02*
G01*
X3167631Y12359863D01*
X3167684Y12637856D02*
G01*
X3247687Y12637856D01*
X3735819Y12470836D02*
G01*
X3735819Y12390838D01*
X3735865Y12526881D02*
G01*
X3735865Y12606878D01*
X3593851Y12470836D02*
G01*
X3593851Y12390838D01*
X3593899Y12526881D02*
G01*
X3593899Y12606878D01*
X3704836Y12359863D02*
G01*
X3624831Y12359863D01*
X3624884Y12637856D02*
G01*
X3704887Y12637856D01*
X3964419Y12470836D02*
G01*
X3964419Y12390838D01*
X3964465Y12526881D02*
G01*
X3964465Y12606878D01*
X3822451Y12470836D02*
G01*
X3822451Y12390838D01*
X3822499Y12526881D02*
G01*
X3822499Y12606878D01*
X3933436Y12359863D02*
G01*
X3853431Y12359863D01*
X3853484Y12637856D02*
G01*
X3933487Y12637856D01*
X4063804Y12526873D02*
G01*
X4063804Y12606870D01*
X4063758Y12470828D02*
G01*
X4063758Y12390831D01*
X4205772Y12526873D02*
G01*
X4205772Y12606870D01*
X4205724Y12470828D02*
G01*
X4205724Y12390831D01*
X4094787Y12637846D02*
G01*
X4174792Y12637846D01*
X4174738Y12359853D02*
G01*
X4094736Y12359853D01*
X2908104Y12526873D02*
G01*
X2908104Y12606870D01*
X2908058Y12470828D02*
G01*
X2908058Y12390831D01*
X3050072Y12526873D02*
G01*
X3050072Y12606870D01*
X3050024Y12470828D02*
G01*
X3050024Y12390831D01*
X2939087Y12637846D02*
G01*
X3019092Y12637846D01*
X3019038Y12359853D02*
G01*
X2939036Y12359853D01*
X4447019Y12470836D02*
G01*
X4447019Y12390838D01*
X4447065Y12526881D02*
G01*
X4447065Y12606878D01*
X4305051Y12470836D02*
G01*
X4305051Y12390838D01*
X4305099Y12526881D02*
G01*
X4305099Y12606878D01*
X4416036Y12359863D02*
G01*
X4336031Y12359863D01*
X4336084Y12637856D02*
G01*
X4416087Y12637856D01*
X4546404Y12526873D02*
G01*
X4546404Y12606870D01*
X4546358Y12470828D02*
G01*
X4546358Y12390831D01*
X4688372Y12526873D02*
G01*
X4688372Y12606870D01*
X4688324Y12470828D02*
G01*
X4688324Y12390831D01*
X4577387Y12637846D02*
G01*
X4657392Y12637846D01*
X4657338Y12359853D02*
G01*
X4577336Y12359853D01*
X1683857Y11782981D02*
G01*
X1683857Y11702983D01*
X1683903Y11839026D02*
G01*
X1683903Y11919023D01*
X1541889Y11782981D02*
G01*
X1541889Y11702983D01*
X1541937Y11839026D02*
G01*
X1541937Y11919023D01*
X1652874Y11672008D02*
G01*
X1572869Y11672008D01*
X1572922Y11950001D02*
G01*
X1652925Y11950001D01*
D10*
X6731000Y12048492D02*
G01*
X6731000Y12048492D01*
X6586981Y12048492D01*
X6552184Y12083290D01*
X6552184Y12275314D01*
X6586981Y12310112D01*
X6731000Y12310112D01*
X6832600Y12048492D02*
G01*
X6832600Y12048492D01*
X6976618Y12048492D01*
X7011415Y12083036D01*
X7011415Y12275568D01*
X6976618Y12310112D01*
X6832600Y12310112D01*
X6009878Y11316639D02*
G01*
X5938075Y11316639D01*
X5938075Y11416360D01*
X6009878Y11416360D01*
X6055121Y11316639D02*
G01*
X6126924Y11316639D01*
X6126924Y11416360D01*
X6055121Y11416360D01*
X6009878Y11456339D02*
G01*
X5938075Y11456339D01*
X5938075Y11556060D01*
X6009878Y11556060D01*
X6055121Y11456339D02*
G01*
X6126924Y11456339D01*
X6126924Y11556060D01*
X6055121Y11556060D01*
D11*
X3397001Y12084789D02*
G01*
X3397001Y12075104D01*
X3371093Y12049193D01*
X3371093Y12027905D02*
G01*
X3427981Y12084789D01*
X3371093Y12027905D02*
G01*
X3371093Y12084789D01*
X3427981Y11384795D02*
G01*
X3381095Y11384795D01*
X3371093Y11384795D01*
X3371093Y11441678D01*
X4071094Y11441678D02*
G01*
X4071094Y11384795D01*
X4014208Y11384795D01*
X4014208Y12084789D02*
G01*
X4071094Y12084789D01*
X4071094Y12027905D01*
X3371093Y12084789D02*
G01*
X3427981Y12084789D01*
X3397001Y12084801D02*
G01*
X3397001Y12075116D01*
X3371093Y12049208D01*
X3371093Y12027918D02*
G01*
X3427981Y12084801D01*
X3371093Y12027918D02*
G01*
X3371093Y12084801D01*
X3427981Y11384808D02*
G01*
X3381095Y11384808D01*
X3371093Y11384808D01*
X3371093Y11441691D01*
X4071091Y11441691D02*
G01*
X4071091Y11384808D01*
X4014208Y11384808D01*
X4014208Y12084801D02*
G01*
X4071091Y12084801D01*
X4071091Y12027918D01*
X3371093Y12084801D02*
G01*
X3427981Y12084801D01*
D10*
X6501107Y11654492D02*
G01*
X6501107Y11789732D01*
X6325867Y11654492D02*
G01*
X6325867Y11789732D01*
X1895129Y11580660D02*
G01*
X1895129Y12015939D01*
X2422870Y12015939D01*
X2422870Y11580660D01*
X1895129Y11580660D01*
X4551121Y11986239D02*
G01*
X4647008Y11986239D01*
X4647008Y12118360D01*
X4551121Y12118360D01*
X4465878Y11986239D02*
G01*
X4369991Y11986239D01*
X4369991Y12118360D01*
X4465878Y12118360D01*
X4551121Y11795739D02*
G01*
X4647008Y11795739D01*
X4647008Y11927860D01*
X4551121Y11927860D01*
X4465878Y11795739D02*
G01*
X4369991Y11795739D01*
X4369991Y11927860D01*
X4465878Y11927860D01*
D11*
X1297800Y11212789D02*
G01*
X1597799Y11212789D01*
X1207803Y11069678D02*
G01*
X1207803Y10875904D01*
X1297800Y11212789D02*
G01*
X1294798Y11212789D01*
X1250833Y11168821D01*
X1297800Y10732800D02*
G01*
X1297800Y10733798D01*
X1250833Y10780758D01*
X1597799Y10732800D02*
G01*
X1297800Y10732800D01*
X1597799Y10732800D02*
G01*
X1600801Y10732800D01*
X1644761Y10776752D01*
X1597799Y11212789D02*
G01*
X1644761Y11165822D01*
X1687791Y11069678D02*
G01*
X1687791Y10875904D01*
X7007999Y10618510D02*
G01*
X6708000Y10618510D01*
X7097996Y10761621D02*
G01*
X7097996Y10955395D01*
X7007999Y10618510D02*
G01*
X7011001Y10618510D01*
X7054966Y10662478D01*
X7007999Y11098499D02*
G01*
X7007999Y11097501D01*
X7054966Y11050541D01*
X6708000Y11098499D02*
G01*
X7007999Y11098499D01*
X6708000Y11098499D02*
G01*
X6704998Y11098499D01*
X6661038Y11054547D01*
X6708000Y10618510D02*
G01*
X6661038Y10665477D01*
X6618008Y10761621D02*
G01*
X6618008Y10955395D01*
X7371839Y11385654D02*
G01*
X7193493Y11385654D01*
X7193493Y11432839D01*
X7193493Y12087578D02*
G01*
X7193493Y12139208D01*
X7372591Y12139208D01*
X7711147Y11460210D02*
G01*
X7761147Y11460210D01*
X7764137Y12069203D01*
X7711147Y12070201D01*
X7610825Y12139208D02*
G01*
X7670071Y12139208D01*
X7671163Y11385654D02*
G01*
X7611557Y11385654D01*
X7711147Y11460210D02*
G01*
X7713139Y11415209D01*
X7762656Y11373203D01*
X7671163Y11385654D01*
X7711147Y11460210D02*
G01*
X7711147Y12070201D01*
X7711147Y12100209D01*
X7758643Y12153204D01*
X7670071Y12140206D01*
X7367158Y11386931D02*
G01*
X7349700Y11387013D01*
X7367193Y11386708D02*
G01*
X7346414Y11387068D01*
G75*
G01*
X5910737Y12122219D02*
G02*
X5941723Y12153201I30983J0D01*
G75*
G01*
X6021720Y12153201D02*
G02*
X6052703Y12122219I0J-30982D01*
G75*
G01*
X6052657Y11906189D02*
G02*
X6021675Y11875209I-30982J3D01*
G75*
G01*
X5941677Y11875209D02*
G02*
X5910689Y11906189I-5J30983D01*
G75*
G01*
X6101237Y12122219D02*
G02*
X6132223Y12153201I30983J0D01*
G75*
G01*
X6212220Y12153201D02*
G02*
X6243203Y12122219I0J-30982D01*
G75*
G01*
X6243157Y11906189D02*
G02*
X6212175Y11875209I-30982J3D01*
G75*
G01*
X6132177Y11875209D02*
G02*
X6101189Y11906189I-5J30983D01*
G75*
G01*
X3485037Y11106219D02*
G02*
X3516023Y11137201I30983J0D01*
G75*
G01*
X3596020Y11137201D02*
G02*
X3627003Y11106219I0J-30982D01*
G75*
G01*
X3626957Y10890189D02*
G02*
X3595975Y10859209I-30982J3D01*
G75*
G01*
X3515977Y10859209D02*
G02*
X3484989Y10890189I-5J30983D01*
G75*
G01*
X4616519Y11564463D02*
G02*
X4647501Y11533477I0J-30983D01*
G75*
G01*
X4647501Y11453480D02*
G02*
X4616519Y11422497I-30982J0D01*
G75*
G01*
X4400489Y11422543D02*
G02*
X4369509Y11453525I3J30982D01*
G75*
G01*
X4369509Y11533523D02*
G02*
X4400489Y11564511I30983J5D01*
G75*
G01*
X2811937Y11626919D02*
G02*
X2842923Y11657901I30983J0D01*
G75*
G01*
X2922920Y11657901D02*
G02*
X2953903Y11626919I0J-30982D01*
G75*
G01*
X2953857Y11410889D02*
G02*
X2922875Y11379909I-30982J3D01*
G75*
G01*
X2842877Y11379909D02*
G02*
X2811889Y11410889I-5J30983D01*
G75*
G01*
X3365299Y12606873D02*
G02*
X3396285Y12637856I30983J0D01*
G75*
G01*
X3476282Y12637856D02*
G02*
X3507265Y12606873I0J-30983D01*
G75*
G01*
X3507219Y12390844D02*
G02*
X3476236Y12359864I-30983J2D01*
G75*
G01*
X3396239Y12359864D02*
G02*
X3365251Y12390844I-5J30982D01*
G75*
G01*
X3136699Y12606873D02*
G02*
X3167685Y12637856I30983J0D01*
G75*
G01*
X3247682Y12637856D02*
G02*
X3278665Y12606873I0J-30983D01*
G75*
G01*
X3278619Y12390844D02*
G02*
X3247636Y12359864I-30983J2D01*
G75*
G01*
X3167639Y12359864D02*
G02*
X3136651Y12390844I-5J30982D01*
G75*
G01*
X3593899Y12606873D02*
G02*
X3624885Y12637856I30983J0D01*
G75*
G01*
X3704882Y12637856D02*
G02*
X3735865Y12606873I0J-30983D01*
G75*
G01*
X3735819Y12390844D02*
G02*
X3704836Y12359864I-30983J2D01*
G75*
G01*
X3624839Y12359864D02*
G02*
X3593851Y12390844I-5J30982D01*
G75*
G01*
X3822499Y12606873D02*
G02*
X3853485Y12637856I30983J0D01*
G75*
G01*
X3933482Y12637856D02*
G02*
X3964465Y12606873I0J-30983D01*
G75*
G01*
X3964419Y12390844D02*
G02*
X3933436Y12359864I-30983J2D01*
G75*
G01*
X3853439Y12359864D02*
G02*
X3822451Y12390844I-5J30982D01*
G75*
G01*
X4205724Y12390836D02*
G02*
X4174739Y12359853I-30983J0D01*
G75*
G01*
X4094742Y12359853D02*
G02*
X4063759Y12390836I0J30983D01*
G75*
G01*
X4063804Y12606866D02*
G02*
X4094787Y12637846I30983J-3D01*
G75*
G01*
X4174785Y12637846D02*
G02*
X4205773Y12606866I5J-30983D01*
G75*
G01*
X3050024Y12390836D02*
G02*
X3019039Y12359853I-30983J0D01*
G75*
G01*
X2939042Y12359853D02*
G02*
X2908059Y12390836I0J30983D01*
G75*
G01*
X2908104Y12606866D02*
G02*
X2939087Y12637846I30983J-3D01*
G75*
G01*
X3019085Y12637846D02*
G02*
X3050073Y12606866I5J-30983D01*
G75*
G01*
X4305099Y12606873D02*
G02*
X4336085Y12637856I30983J0D01*
G75*
G01*
X4416082Y12637856D02*
G02*
X4447065Y12606873I0J-30983D01*
G75*
G01*
X4447019Y12390844D02*
G02*
X4416036Y12359864I-30983J2D01*
G75*
G01*
X4336039Y12359864D02*
G02*
X4305051Y12390844I-5J30982D01*
G75*
G01*
X4688324Y12390836D02*
G02*
X4657339Y12359853I-30983J0D01*
G75*
G01*
X4577342Y12359853D02*
G02*
X4546359Y12390836I0J30983D01*
G75*
G01*
X4546404Y12606866D02*
G02*
X4577387Y12637846I30983J-3D01*
G75*
G01*
X4657385Y12637846D02*
G02*
X4688373Y12606866I5J-30983D01*
G75*
G01*
X1541937Y11919019D02*
G02*
X1572923Y11950001I30983J0D01*
G75*
G01*
X1652920Y11950001D02*
G02*
X1683903Y11919019I0J-30982D01*
G75*
G01*
X1683857Y11702989D02*
G02*
X1652875Y11672009I-30982J3D01*
G75*
G01*
X1572877Y11672009D02*
G02*
X1541889Y11702989I-5J30983D01*
G75*
G01
X3333801Y12104815D02*
G03X3333801Y12104815I-12700J0D01*
G75*
G01
X3333801Y12104789D02*
G03X3333801Y12104789I-12700J0D01*
D12*
G75*
G01
X6334620Y11620487D02*
G03X6334620Y11620487I-10008J0D01*
D13*
G75*
G01
X1983511Y11655908D02*
G03X1983511Y11655908I-15011J0D01*
G75*
G01
X1906778Y11445291D02*
G03X1906778Y11445291I-15011J0D01*
D11*
G75*
G01
X1664132Y10972787D02*
G03X1664132Y10972787I-216332J0D01*
G75*
G01
X7074332Y10858513D02*
G03X7074332Y10858513I-216332J0D01*
G75*
G01
X7130445Y11555306D02*
G03X7130445Y11555306I-12700J0D01*
M02*
